G75*
%MOIN*%
%OFA0B0*%
%FSLAX24Y24*%
%IPPOS*%
%LPD*%
%AMOC8*
5,1,8,0,0,1.08239X$1,22.5*
%
%ADD10R,0.0669X0.0669*%
%ADD11C,0.0669*%
%ADD12C,0.0416*%
D10*
X002370Y002786D03*
X002370Y009164D03*
X002370Y015463D03*
D11*
X002370Y016463D03*
X003370Y016463D03*
X003370Y015463D03*
X004370Y015463D03*
X004370Y016463D03*
X005370Y016463D03*
X005370Y015463D03*
X006370Y015463D03*
X006370Y016463D03*
X007370Y016463D03*
X007370Y015463D03*
X008370Y015463D03*
X008370Y016463D03*
X009370Y016463D03*
X009370Y015463D03*
X009370Y010164D03*
X009370Y009164D03*
X008370Y009164D03*
X008370Y010164D03*
X007370Y010164D03*
X007370Y009164D03*
X006370Y009164D03*
X006370Y010164D03*
X005370Y010164D03*
X005370Y009164D03*
X004370Y009164D03*
X004370Y010164D03*
X003370Y010164D03*
X003370Y009164D03*
X002370Y010164D03*
X002370Y003786D03*
X003370Y003786D03*
X003370Y002786D03*
X004370Y002786D03*
X004370Y003786D03*
X005370Y003786D03*
X005370Y002786D03*
X006370Y002786D03*
X006370Y003786D03*
X007370Y003786D03*
X007370Y002786D03*
X008370Y002786D03*
X008370Y003786D03*
X009370Y003786D03*
X009370Y002786D03*
D12*
X007799Y004704D03*
X007031Y007144D03*
X009728Y011908D03*
X010831Y011121D03*
X010437Y008207D03*
X010083Y005570D03*
X007051Y012381D03*
X007051Y013326D03*
X009807Y013995D03*
X003469Y011672D03*
X002602Y011987D03*
X001500Y007026D03*
X002760Y006318D03*
X003469Y005373D03*
X002012Y004428D03*
M02*
