G75*
%MOIN*%
%OFA0B0*%
%FSLAX24Y24*%
%IPPOS*%
%LPD*%
%AMOC8*
5,1,8,0,0,1.08239X$1,22.5*
%
%ADD10R,0.0669X0.0669*%
%ADD11C,0.0669*%
%ADD12R,0.0315X0.0610*%
%ADD13R,0.0236X0.0610*%
%ADD14R,0.0295X0.0551*%
%ADD15R,0.0669X0.0591*%
%ADD16R,0.0295X0.0394*%
%ADD17C,0.0787*%
%ADD18C,0.0416*%
D10*
X002370Y002786D03*
X002370Y009164D03*
X002370Y015463D03*
D11*
X002370Y016463D03*
X003370Y016463D03*
X003370Y015463D03*
X004370Y015463D03*
X004370Y016463D03*
X005370Y016463D03*
X005370Y015463D03*
X006370Y015463D03*
X006370Y016463D03*
X007370Y016463D03*
X007370Y015463D03*
X008370Y015463D03*
X008370Y016463D03*
X009370Y016463D03*
X009370Y015463D03*
X009370Y010164D03*
X009370Y009164D03*
X008370Y009164D03*
X008370Y010164D03*
X007370Y010164D03*
X007370Y009164D03*
X006370Y009164D03*
X006370Y010164D03*
X005370Y010164D03*
X005370Y009164D03*
X004370Y009164D03*
X004370Y010164D03*
X003370Y010164D03*
X003370Y009164D03*
X002370Y010164D03*
X002370Y003786D03*
X003370Y003786D03*
X003370Y002786D03*
X004370Y002786D03*
X004370Y003786D03*
X005370Y003786D03*
X005370Y002786D03*
X006370Y002786D03*
X006370Y003786D03*
X007370Y003786D03*
X007370Y002786D03*
X008370Y002786D03*
X008370Y003786D03*
X009370Y003786D03*
X009370Y002786D03*
D12*
X006726Y005363D03*
X006726Y007666D03*
X006726Y011662D03*
X006726Y013965D03*
X003833Y013965D03*
X003833Y011662D03*
X003833Y007666D03*
X003833Y005363D03*
D13*
X004128Y005363D03*
X004384Y005363D03*
X004640Y005363D03*
X004896Y005363D03*
X005152Y005363D03*
X005407Y005363D03*
X005663Y005363D03*
X005919Y005363D03*
X006175Y005363D03*
X006431Y005363D03*
X006431Y007666D03*
X006175Y007666D03*
X005919Y007666D03*
X005663Y007666D03*
X005407Y007666D03*
X005152Y007666D03*
X004896Y007666D03*
X004640Y007666D03*
X004384Y007666D03*
X004128Y007666D03*
X004128Y011662D03*
X004384Y011662D03*
X004640Y011662D03*
X004896Y011662D03*
X005152Y011662D03*
X005407Y011662D03*
X005663Y011662D03*
X005919Y011662D03*
X006175Y011662D03*
X006431Y011662D03*
X006431Y013965D03*
X006175Y013965D03*
X005919Y013965D03*
X005663Y013965D03*
X005407Y013965D03*
X005152Y013965D03*
X004896Y013965D03*
X004640Y013965D03*
X004384Y013965D03*
X004128Y013965D03*
D14*
X001874Y007578D03*
X001874Y006554D03*
X001500Y006554D03*
X001126Y006554D03*
X001126Y007578D03*
D15*
X001185Y005629D03*
X001185Y004959D03*
X002012Y004959D03*
X002012Y005629D03*
X002760Y006849D03*
X002760Y007518D03*
X001264Y012518D03*
X001264Y013188D03*
X007602Y013345D03*
X007602Y014015D03*
X008429Y014015D03*
X008429Y013345D03*
X008429Y012361D03*
X008429Y011692D03*
X007602Y011692D03*
X007602Y012361D03*
X009256Y013345D03*
X009256Y014015D03*
X010358Y014015D03*
X010358Y013345D03*
X010752Y012361D03*
X010752Y011692D03*
X010791Y007676D03*
X010791Y007007D03*
X009984Y007007D03*
X009984Y007676D03*
X009177Y007676D03*
X009177Y007007D03*
X008941Y005904D03*
X008941Y005235D03*
X008370Y007007D03*
X008370Y007676D03*
X007563Y007676D03*
X007563Y007007D03*
D16*
X007425Y006042D03*
X007799Y006042D03*
X008173Y006042D03*
X008173Y005097D03*
X007799Y005097D03*
X007425Y005097D03*
X009709Y005097D03*
X010083Y005097D03*
X010457Y005097D03*
X010457Y006042D03*
X010083Y006042D03*
X009709Y006042D03*
X009531Y011515D03*
X009157Y011515D03*
X009157Y012459D03*
X009531Y012459D03*
X009906Y012459D03*
X009906Y011515D03*
X002976Y012381D03*
X002602Y012381D03*
X002228Y012381D03*
X002228Y013326D03*
X002602Y013326D03*
X002976Y013326D03*
D17*
X001146Y016436D03*
X010398Y016436D03*
X010398Y002381D03*
D18*
X010083Y005570D03*
X010437Y008207D03*
X010831Y011121D03*
X009728Y011908D03*
X009807Y013995D03*
X007051Y013326D03*
X007051Y012381D03*
X007031Y007144D03*
X007799Y004704D03*
X003469Y005373D03*
X002760Y006318D03*
X002012Y004428D03*
X001500Y007026D03*
X003469Y011672D03*
X002602Y011987D03*
M02*
