%
M48
M72
T01C0.0118
T02C0.0197
T03C0.0354
T04C0.0394
%
T01
X3665Y6436
X4020Y6672
X4295Y6436
X4571Y6672
X4807Y6396
X5043Y6672
X5516Y6672
X5949Y6672
X6224Y6436
X6500Y6160
X6776Y5885
X6776Y6672
X7996Y5491
X8429Y5727
X8980Y6475
X9492Y5727
X8823Y8207
X8941Y11160
X8941Y12066
X6579Y10963
X6185Y11003
X6067Y10648
X5673Y11042
X5280Y10727
X4925Y10727
X4571Y10806
X3980Y10767
X3193Y10767
X2799Y10806
X2248Y11672
X2957Y12932
X3783Y12932
X1500Y11672
X1224Y10176
T02
X2602Y11987
X3469Y11672
X1500Y7026
X2760Y6318
X3469Y5373
X2012Y4428
X7031Y7144
X7799Y4704
X10083Y5570
X10437Y8207
X10831Y11121
X9728Y11908
X9807Y13995
X7051Y13326
X7051Y12381
T03
X9370Y10164
X9370Y9164
X9370Y3786
X9370Y2786
X9370Y15463
X9370Y16463
T04
X2370Y2786
X2370Y3786
X3370Y3786
X3370Y2786
X4370Y2786
X4370Y3786
X5370Y3786
X5370Y2786
X6370Y2786
X6370Y3786
X7370Y3786
X7370Y2786
X8370Y2786
X8370Y3786
X8370Y9164
X8370Y10164
X7370Y10164
X7370Y9164
X6370Y9164
X6370Y10164
X5370Y10164
X5370Y9164
X4370Y9164
X4370Y10164
X3370Y10164
X3370Y9164
X2370Y9164
X2370Y10164
X2370Y15463
X2370Y16463
X3370Y16463
X3370Y15463
X4370Y15463
X4370Y16463
X5370Y16463
X5370Y15463
X6370Y15463
X6370Y16463
X7370Y16463
X7370Y15463
X8370Y15463
X8370Y16463
M30
