G75*
%MOIN*%
%OFA0B0*%
%FSLAX24Y24*%
%IPPOS*%
%LPD*%
%AMOC8*
5,1,8,0,0,1.08239X$1,22.5*
%
%ADD10R,0.0591X0.0591*%
%ADD11C,0.0591*%
%ADD12R,0.0236X0.0531*%
%ADD13R,0.0157X0.0531*%
%ADD14R,0.0217X0.0472*%
%ADD15R,0.0591X0.0512*%
%ADD16R,0.0217X0.0315*%
%ADD17C,0.0394*%
%ADD18C,0.0100*%
%ADD19C,0.0098*%
%ADD20C,0.0337*%
%ADD21C,0.0236*%
%ADD22C,0.0157*%
%ADD23C,0.0079*%
%ADD24C,0.0258*%
%ADD25C,0.0315*%
D10*
X002370Y002786D03*
X002370Y009164D03*
X002370Y015463D03*
D11*
X002370Y016463D03*
X003370Y016463D03*
X003370Y015463D03*
X004370Y015463D03*
X004370Y016463D03*
X005370Y016463D03*
X005370Y015463D03*
X006370Y015463D03*
X006370Y016463D03*
X007370Y016463D03*
X007370Y015463D03*
X008370Y015463D03*
X008370Y016463D03*
X009370Y016463D03*
X009370Y015463D03*
X009370Y010164D03*
X009370Y009164D03*
X008370Y009164D03*
X008370Y010164D03*
X007370Y010164D03*
X007370Y009164D03*
X006370Y009164D03*
X006370Y010164D03*
X005370Y010164D03*
X005370Y009164D03*
X004370Y009164D03*
X004370Y010164D03*
X003370Y010164D03*
X003370Y009164D03*
X002370Y010164D03*
X002370Y003786D03*
X003370Y003786D03*
X003370Y002786D03*
X004370Y002786D03*
X004370Y003786D03*
X005370Y003786D03*
X005370Y002786D03*
X006370Y002786D03*
X006370Y003786D03*
X007370Y003786D03*
X007370Y002786D03*
X008370Y002786D03*
X008370Y003786D03*
X009370Y003786D03*
X009370Y002786D03*
D12*
X006726Y005363D03*
X006726Y007666D03*
X006726Y011662D03*
X006726Y013965D03*
X003833Y013965D03*
X003833Y011662D03*
X003833Y007666D03*
X003833Y005363D03*
D13*
X004128Y005363D03*
X004384Y005363D03*
X004640Y005363D03*
X004896Y005363D03*
X005152Y005363D03*
X005407Y005363D03*
X005663Y005363D03*
X005919Y005363D03*
X006175Y005363D03*
X006431Y005363D03*
X006431Y007666D03*
X006175Y007666D03*
X005919Y007666D03*
X005663Y007666D03*
X005407Y007666D03*
X005152Y007666D03*
X004896Y007666D03*
X004640Y007666D03*
X004384Y007666D03*
X004128Y007666D03*
X004128Y011662D03*
X004384Y011662D03*
X004640Y011662D03*
X004896Y011662D03*
X005152Y011662D03*
X005407Y011662D03*
X005663Y011662D03*
X005919Y011662D03*
X006175Y011662D03*
X006431Y011662D03*
X006431Y013965D03*
X006175Y013965D03*
X005919Y013965D03*
X005663Y013965D03*
X005407Y013965D03*
X005152Y013965D03*
X004896Y013965D03*
X004640Y013965D03*
X004384Y013965D03*
X004128Y013965D03*
D14*
X001874Y007578D03*
X001874Y006554D03*
X001500Y006554D03*
X001126Y006554D03*
X001126Y007578D03*
D15*
X001185Y005629D03*
X001185Y004959D03*
X002012Y004959D03*
X002012Y005629D03*
X002760Y006849D03*
X002760Y007518D03*
X001264Y012518D03*
X001264Y013188D03*
X007602Y013345D03*
X007602Y014015D03*
X008429Y014015D03*
X008429Y013345D03*
X008429Y012361D03*
X008429Y011692D03*
X007602Y011692D03*
X007602Y012361D03*
X009256Y013345D03*
X009256Y014015D03*
X010358Y014015D03*
X010358Y013345D03*
X010752Y012361D03*
X010752Y011692D03*
X010791Y007676D03*
X010791Y007007D03*
X009984Y007007D03*
X009984Y007676D03*
X009177Y007676D03*
X009177Y007007D03*
X008941Y005904D03*
X008941Y005235D03*
X008370Y007007D03*
X008370Y007676D03*
X007563Y007676D03*
X007563Y007007D03*
D16*
X007425Y006042D03*
X007799Y006042D03*
X008173Y006042D03*
X008173Y005097D03*
X007799Y005097D03*
X007425Y005097D03*
X009709Y005097D03*
X010083Y005097D03*
X010457Y005097D03*
X010457Y006042D03*
X010083Y006042D03*
X009709Y006042D03*
X009531Y011515D03*
X009157Y011515D03*
X009157Y012459D03*
X009531Y012459D03*
X009906Y012459D03*
X009906Y011515D03*
X002976Y012381D03*
X002602Y012381D03*
X002228Y012381D03*
X002228Y013326D03*
X002602Y013326D03*
X002976Y013326D03*
D17*
X001146Y016436D03*
X010398Y016436D03*
X010398Y002381D03*
D18*
X010628Y009365D02*
X010628Y009645D01*
X010721Y009738D01*
X010814Y009645D01*
X010814Y009458D01*
X010908Y009365D01*
X011001Y009458D01*
X011001Y009738D01*
X011001Y009970D02*
X010534Y009970D01*
X010441Y009877D01*
X010441Y009783D01*
X010628Y010202D02*
X010628Y010389D01*
X010628Y010295D02*
X011187Y010295D01*
X011187Y010202D01*
X011187Y009970D02*
X011281Y009970D01*
D19*
X001401Y002056D02*
X001401Y001891D01*
X001555Y002045D02*
X001555Y002243D01*
X001467Y002518D02*
X001467Y002903D01*
X001346Y002903D01*
X001324Y002771D02*
X001258Y002771D01*
X001258Y002622D01*
X001258Y002771D02*
X001192Y002771D01*
X001148Y002903D02*
X001027Y002903D01*
X001027Y002518D01*
X001060Y002595D02*
X001445Y002595D01*
X001401Y002416D02*
X001401Y002243D01*
X001840Y002177D02*
X001840Y001957D01*
X000972Y003105D02*
X000955Y003103D01*
X000938Y003104D01*
X000922Y003108D01*
X000906Y003115D01*
X000892Y003124D01*
X000880Y003136D01*
X000870Y003151D01*
X000863Y003166D01*
X000983Y003101D02*
X001004Y003111D01*
X001023Y003124D01*
X001041Y003140D01*
X001055Y003158D01*
X001067Y003178D01*
X001076Y003200D01*
X001081Y003222D01*
X001083Y003246D01*
X001081Y003269D01*
X001076Y003292D01*
X001067Y003314D01*
X001056Y003334D01*
X001041Y003352D01*
X001024Y003368D01*
X001004Y003381D01*
X000983Y003391D01*
X000961Y003397D01*
X001060Y003397D01*
X000664Y003386D02*
X000647Y003367D01*
X000633Y003346D01*
X000622Y003323D01*
X000613Y003298D01*
X000609Y003273D01*
X000607Y003247D01*
X000609Y003222D01*
X000614Y003197D01*
X000623Y003172D01*
X000635Y003149D01*
X000649Y003128D01*
X000667Y003109D01*
X000686Y003093D01*
X000708Y003079D01*
X000708Y003078D02*
X000620Y003078D01*
X000664Y003387D02*
X000678Y003399D01*
X000693Y003408D01*
X000710Y003413D01*
X000728Y003415D01*
X000746Y003413D01*
X000763Y003407D01*
X000778Y003398D01*
X000791Y003385D01*
X000801Y003370D01*
X000807Y003354D01*
X000808Y003350D02*
X000828Y003294D01*
X000845Y003238D01*
X000859Y003180D01*
X001405Y002349D02*
X001547Y002290D01*
X001691Y002234D01*
X001835Y002181D01*
X001823Y002110D02*
X001686Y002054D01*
X001549Y002000D01*
X001410Y001948D01*
D20*
X002012Y004428D03*
X002760Y006318D03*
X003469Y005373D03*
X001500Y007026D03*
X003469Y011672D03*
X002602Y011987D03*
X007051Y012381D03*
X007051Y013326D03*
X009807Y013995D03*
X009728Y011908D03*
X010831Y011121D03*
X010437Y008207D03*
X010083Y005570D03*
X007799Y004704D03*
X007031Y007144D03*
D21*
X007524Y007144D01*
X007524Y007007D01*
X007563Y007007D01*
X007602Y012361D02*
X007602Y012381D01*
X007051Y012381D01*
X007051Y013326D02*
X007602Y013326D01*
X007602Y013345D01*
X009256Y014015D02*
X009807Y014015D01*
X009807Y013995D01*
X003833Y011672D02*
X003469Y011672D01*
X003833Y011662D02*
X003833Y011672D01*
X002957Y012932D02*
X002602Y012932D01*
X002115Y012932D01*
X001815Y012632D01*
X001815Y012381D01*
X001815Y008533D01*
X002102Y008247D01*
X002460Y008247D01*
X002760Y007947D01*
X002760Y007518D01*
X002760Y007578D01*
X001874Y007578D01*
X002760Y006849D02*
X002760Y006318D01*
X002012Y005629D02*
X001185Y005629D01*
X002012Y004959D02*
X002012Y004428D01*
X003469Y005363D02*
X003469Y005373D01*
X003469Y005363D02*
X003833Y005363D01*
D22*
X003637Y006948D02*
X006118Y006948D01*
X007130Y005935D01*
X007130Y005852D01*
X007254Y005727D01*
X007711Y005727D01*
X007799Y005815D01*
X007799Y006042D01*
X007799Y006272D01*
X007924Y006396D01*
X008370Y006396D01*
X008410Y006396D01*
X008744Y006062D01*
X008744Y005904D01*
X008941Y005904D01*
X008941Y005924D01*
X009020Y005924D01*
X009492Y006396D01*
X009995Y006396D01*
X010083Y006308D01*
X010083Y006042D01*
X010083Y005570D02*
X010083Y005097D01*
X010083Y004861D01*
X010004Y004782D01*
X008941Y004782D01*
X007799Y004782D01*
X007799Y005097D01*
X008370Y006396D02*
X008370Y007007D01*
X008370Y007676D02*
X007563Y007676D01*
X007563Y007666D01*
X006726Y007666D01*
X008941Y005235D02*
X008941Y004782D01*
X009984Y007676D02*
X009984Y008064D01*
X010128Y008207D01*
X010437Y008207D01*
X009531Y011515D02*
X009531Y011766D01*
X009673Y011908D01*
X009728Y011908D01*
X009531Y012459D02*
X009531Y012735D01*
X009335Y012932D01*
X009256Y012932D01*
X008429Y012932D01*
X003783Y012932D01*
X002602Y012932D02*
X002602Y013326D01*
X002602Y012381D02*
X002602Y011987D01*
X002228Y012381D02*
X001815Y012381D01*
X002760Y007518D02*
X003185Y007518D01*
X003311Y007392D01*
X003311Y007274D01*
X003637Y006948D01*
X002012Y005629D02*
X001874Y005629D01*
X001874Y006121D01*
X001874Y006554D01*
X001500Y006554D02*
X001500Y007026D01*
X006726Y013965D02*
X007602Y013965D01*
X007602Y014015D01*
X008429Y014015D01*
X008429Y013345D02*
X008429Y012932D01*
X009256Y012932D02*
X009256Y013345D01*
X007602Y014005D02*
X007602Y014015D01*
D23*
X007276Y014389D02*
X008350Y015463D01*
X008370Y015463D01*
X008862Y015971D02*
X008862Y016624D01*
X009225Y016987D01*
X010671Y016987D01*
X010988Y016670D01*
X010988Y013161D01*
X010759Y012932D01*
X010324Y012932D01*
X010161Y012770D01*
X010161Y011215D01*
X009713Y010767D01*
X008368Y010767D01*
X007957Y010355D01*
X007957Y009940D01*
X008154Y009743D01*
X008791Y009743D01*
X009370Y009164D01*
X010138Y009164D01*
X011224Y008078D01*
X011224Y004641D01*
X009370Y002786D01*
X009180Y002341D02*
X008862Y002659D01*
X008862Y003267D01*
X008370Y003759D01*
X008370Y003786D01*
X007839Y003961D02*
X007839Y003318D01*
X008370Y002786D01*
X007839Y003961D02*
X007096Y004704D01*
X006676Y004704D01*
X006431Y004948D01*
X006431Y005363D01*
X006431Y005727D01*
X006500Y005796D01*
X006500Y006160D01*
X006776Y005885D02*
X006726Y005835D01*
X006726Y005363D01*
X006175Y004872D02*
X006501Y004546D01*
X006610Y004546D01*
X007370Y003786D01*
X006815Y003978D02*
X006815Y003341D01*
X007370Y002786D01*
X006815Y003978D02*
X006404Y004389D01*
X006330Y004389D01*
X005919Y004800D01*
X005919Y005363D01*
X005919Y006672D01*
X005949Y006672D01*
X005663Y006524D02*
X005516Y006672D01*
X005663Y006524D02*
X005663Y005363D01*
X005663Y004465D01*
X006343Y003786D01*
X006370Y003786D01*
X005831Y003974D02*
X005831Y003326D01*
X006370Y002786D01*
X005831Y003974D02*
X005407Y004397D01*
X005407Y005363D01*
X005407Y006308D01*
X005043Y006672D01*
X004807Y006396D02*
X005152Y006052D01*
X005152Y005363D01*
X005152Y004192D01*
X005358Y003985D01*
X005358Y003786D01*
X005370Y003786D01*
X004896Y003261D02*
X005370Y002786D01*
X004896Y003261D02*
X004896Y005363D01*
X004896Y005835D01*
X004571Y006160D01*
X004571Y006672D01*
X004295Y006436D02*
X004295Y006081D01*
X004640Y005737D01*
X004640Y005363D01*
X004640Y004056D01*
X004370Y003786D01*
X003941Y004041D02*
X004384Y004484D01*
X004384Y005363D01*
X004384Y005721D01*
X004181Y005924D01*
X004020Y006085D01*
X004020Y006672D01*
X003665Y006436D02*
X003665Y006150D01*
X004049Y005767D01*
X004128Y005687D01*
X004128Y005363D01*
X004128Y004544D01*
X003370Y003786D01*
X002878Y003278D02*
X003370Y002786D01*
X002878Y003278D02*
X002878Y005642D01*
X002248Y006272D01*
X002248Y006687D01*
X001500Y007435D01*
X001500Y011672D01*
X001500Y012518D01*
X001264Y012518D01*
X001264Y013188D02*
X000634Y013188D01*
X000634Y013247D01*
X002228Y013326D02*
X002228Y013593D01*
X002354Y013719D01*
X003370Y013719D01*
X003370Y013680D01*
X003370Y012144D01*
X006622Y012144D01*
X006726Y012040D01*
X006726Y011662D01*
X006431Y011662D02*
X006431Y011111D01*
X006579Y010963D01*
X006185Y011003D02*
X006175Y011003D01*
X006175Y011662D01*
X005919Y011662D02*
X005919Y010796D01*
X006067Y010648D01*
X005673Y011042D02*
X005663Y011042D01*
X005663Y011662D01*
X005407Y011662D02*
X005407Y010855D01*
X005280Y010727D01*
X005152Y010954D02*
X004925Y010727D01*
X005152Y010954D02*
X005152Y011662D01*
X004896Y011662D02*
X004896Y011131D01*
X004571Y010806D01*
X004189Y010767D02*
X004640Y011217D01*
X004640Y011662D01*
X004384Y011662D02*
X004384Y011291D01*
X004096Y011003D01*
X003429Y011003D01*
X003193Y010767D01*
X002799Y010806D02*
X003232Y011239D01*
X004059Y011239D01*
X004128Y011308D01*
X004128Y011662D01*
X004189Y010767D02*
X003980Y010767D01*
X004370Y010164D02*
X004807Y009727D01*
X004807Y008375D01*
X004640Y008207D01*
X004640Y007666D01*
X004896Y007666D02*
X004896Y008178D01*
X005358Y008641D01*
X005358Y009164D01*
X005370Y009164D01*
X005791Y008768D02*
X005791Y009743D01*
X005370Y010164D01*
X006370Y009164D02*
X005965Y008759D01*
X005965Y008641D01*
X005407Y008083D01*
X005407Y007666D01*
X005663Y007666D02*
X005663Y008060D01*
X006283Y008680D01*
X006528Y008680D01*
X006815Y008967D01*
X006815Y009719D01*
X006370Y010164D01*
X005791Y008768D02*
X005152Y008129D01*
X005152Y007666D01*
X004384Y007666D02*
X004384Y009164D01*
X004370Y009164D01*
X003862Y008473D02*
X004128Y008207D01*
X004128Y007666D01*
X003833Y007666D02*
X003823Y007666D01*
X003823Y007282D01*
X006402Y007282D01*
X006776Y006908D01*
X006869Y006908D01*
X007169Y006608D01*
X007425Y006353D01*
X007425Y006042D01*
X007996Y005491D02*
X008173Y005491D01*
X008173Y005097D01*
X007799Y004782D02*
X007524Y004782D01*
X007425Y004881D01*
X007425Y005097D01*
X008173Y005983D02*
X008173Y006042D01*
X008173Y005983D02*
X008429Y005727D01*
X008980Y006475D02*
X008980Y007007D01*
X009177Y007007D01*
X009984Y007007D01*
X010457Y006672D02*
X010791Y007007D01*
X010457Y006672D02*
X010457Y006042D01*
X010457Y005097D01*
X010457Y004873D01*
X009370Y003786D01*
X009846Y002971D02*
X009846Y002620D01*
X009568Y002341D01*
X009180Y002341D01*
X009846Y002971D02*
X011382Y004507D01*
X011382Y008168D01*
X009885Y009664D01*
X009219Y009664D01*
X008941Y009943D01*
X008941Y010164D01*
X008370Y010164D01*
X007799Y009885D02*
X008099Y009585D01*
X008656Y009585D01*
X008823Y009418D01*
X008823Y008207D01*
X008823Y008056D01*
X009203Y007676D01*
X009177Y007676D01*
X007768Y008562D02*
X008370Y009164D01*
X007839Y009317D02*
X007839Y008995D01*
X007563Y008719D01*
X007327Y008719D01*
X006933Y008326D01*
X006490Y008326D01*
X006175Y008010D01*
X006175Y007666D01*
X005919Y007666D02*
X005919Y008031D01*
X006371Y008483D01*
X006669Y008483D01*
X007350Y009164D01*
X007370Y009164D01*
X007524Y008562D02*
X007768Y008562D01*
X007524Y008562D02*
X007130Y008168D01*
X006584Y008168D01*
X006431Y008015D01*
X006431Y007666D01*
X006313Y007135D02*
X003747Y007135D01*
X003547Y007335D01*
X003547Y008987D01*
X003370Y009164D01*
X002917Y009617D01*
X002917Y010318D01*
X002524Y010712D01*
X002524Y011298D01*
X003370Y012144D01*
X002976Y011954D02*
X002695Y011672D01*
X002248Y011672D01*
X002976Y011954D02*
X002976Y012381D01*
X002996Y012381D01*
X002996Y012459D01*
X003193Y012656D01*
X003193Y013286D01*
X003154Y013326D01*
X002976Y013326D01*
X003370Y013719D02*
X003370Y015463D01*
X003941Y015893D02*
X003370Y016463D01*
X003941Y015893D02*
X003941Y014615D01*
X004128Y014428D01*
X004128Y013965D01*
X004384Y013965D02*
X004384Y015463D01*
X004370Y015463D01*
X004807Y016026D02*
X004807Y014625D01*
X004640Y014457D01*
X004640Y013965D01*
X004896Y013965D02*
X004896Y014425D01*
X005358Y014888D01*
X005358Y015463D01*
X005370Y015463D01*
X005791Y015044D02*
X005791Y016042D01*
X005370Y016463D01*
X004807Y016026D02*
X004370Y016463D01*
X005791Y015044D02*
X005152Y014405D01*
X005152Y013965D01*
X005407Y013965D02*
X005407Y014398D01*
X005949Y014940D01*
X005949Y015042D01*
X006370Y015463D01*
X006305Y015018D02*
X006605Y015018D01*
X006854Y015267D01*
X006854Y015979D01*
X006370Y016463D01*
X006305Y015018D02*
X005663Y014377D01*
X005663Y013965D01*
X005919Y013965D02*
X005919Y014349D01*
X006382Y014812D01*
X006382Y014822D01*
X006724Y014822D01*
X007366Y015463D01*
X007370Y015463D01*
X007839Y015269D02*
X007839Y015995D01*
X007370Y016463D01*
X007839Y015269D02*
X007116Y014546D01*
X006386Y014546D01*
X006175Y014336D01*
X006175Y013965D01*
X006431Y013965D02*
X006431Y014320D01*
X006500Y014389D01*
X007276Y014389D01*
X006854Y012735D02*
X006736Y012617D01*
X003632Y012617D01*
X003547Y012702D01*
X003547Y013189D01*
X003833Y013474D01*
X003833Y013965D01*
X002370Y016463D02*
X002370Y016475D01*
X003370Y010164D02*
X003862Y009672D01*
X003862Y008473D01*
X001874Y006121D02*
X001234Y006121D01*
X001146Y006209D01*
X001146Y006554D01*
X001126Y006554D01*
X003941Y004041D02*
X003941Y003215D01*
X004370Y002786D01*
X006175Y004872D02*
X006175Y005363D01*
X006175Y006436D01*
X006224Y006436D01*
X006776Y006672D02*
X006313Y007135D01*
X007839Y009317D02*
X007366Y009790D01*
X007366Y010164D01*
X007370Y010164D01*
X007799Y010436D02*
X007799Y009885D01*
X007799Y010436D02*
X008523Y011160D01*
X008941Y011160D01*
X009800Y011160D01*
X009906Y011266D01*
X009906Y011515D01*
X009531Y011515D02*
X009157Y011515D01*
X009114Y011790D02*
X009507Y012184D01*
X009835Y012184D01*
X009906Y012255D01*
X009906Y012459D01*
X010319Y012686D02*
X010319Y011137D01*
X009791Y010609D01*
X009153Y010609D01*
X008941Y010397D01*
X008941Y010164D01*
X009370Y010164D02*
X009790Y010164D01*
X010555Y010930D01*
X010555Y011692D01*
X010752Y011692D01*
X010831Y011121D02*
X011043Y011121D01*
X011185Y011263D01*
X011185Y012290D01*
X011114Y012361D01*
X010752Y012361D01*
X010846Y012774D02*
X010407Y012774D01*
X010319Y012686D01*
X010358Y013345D02*
X010732Y013345D01*
X010831Y013444D01*
X010831Y015003D01*
X010583Y015251D01*
X009370Y016463D01*
X009071Y017144D02*
X010752Y017144D01*
X011146Y016751D01*
X011146Y013074D01*
X010846Y012774D01*
X010358Y014015D02*
X009807Y014015D01*
X009121Y012735D02*
X006854Y012735D01*
X007602Y011692D02*
X008429Y011692D01*
X008587Y011692D01*
X008685Y011790D01*
X009114Y011790D01*
X008941Y012066D02*
X008941Y012230D01*
X008830Y012341D01*
X008429Y012341D01*
X008429Y012361D01*
X008587Y011692D02*
X008587Y011554D01*
X009157Y012459D02*
X009177Y012459D01*
X009177Y012679D01*
X009121Y012735D01*
X009370Y015463D02*
X008862Y015971D01*
X008390Y016463D02*
X009071Y017144D01*
X008390Y016463D02*
X008370Y016463D01*
X010437Y008207D02*
X010706Y008207D01*
X010831Y008083D01*
X010831Y007676D01*
X010791Y007676D01*
X010083Y006042D02*
X010083Y005996D01*
X009768Y005681D01*
X009768Y005097D01*
X009709Y005097D01*
X009492Y005727D02*
X009492Y006042D01*
X009709Y006042D01*
D24*
X009492Y005727D03*
X008980Y006475D03*
X008429Y005727D03*
X007996Y005491D03*
X006776Y005885D03*
X006500Y006160D03*
X006224Y006436D03*
X005949Y006672D03*
X005516Y006672D03*
X005043Y006672D03*
X004807Y006396D03*
X004571Y006672D03*
X004295Y006436D03*
X004020Y006672D03*
X003665Y006436D03*
X003980Y010767D03*
X004571Y010806D03*
X004925Y010727D03*
X005280Y010727D03*
X005673Y011042D03*
X006067Y010648D03*
X006185Y011003D03*
X006579Y010963D03*
X008823Y008207D03*
X008941Y011160D03*
X008941Y012066D03*
X006776Y006672D03*
X003193Y010767D03*
X002799Y010806D03*
X002248Y011672D03*
X002957Y012932D03*
X003783Y012932D03*
X001500Y011672D03*
X001224Y010176D03*
D25*
X000634Y010176D01*
X000634Y013247D01*
X000634Y014792D01*
X002305Y016463D01*
X002370Y016463D01*
X000634Y010176D02*
X000634Y005772D01*
X000777Y005629D01*
X001185Y005629D01*
X001185Y004959D02*
X001185Y004324D01*
X001723Y003786D01*
X002370Y003786D01*
M02*
