G75*
%MOIN*%
%OFA0B0*%
%FSLAX24Y24*%
%IPPOS*%
%LPD*%
%AMOC8*
5,1,8,0,0,1.08239X$1,22.5*
%
%ADD10C,0.0060*%
%ADD11C,0.0040*%
%ADD12C,0.0157*%
%ADD13C,0.0039*%
D10*
X003720Y005755D02*
X003720Y007275D01*
X002060Y007385D02*
X002060Y006747D01*
X001688Y006747D02*
X001686Y006747D01*
X001314Y006747D02*
X001312Y006747D01*
X000940Y006747D02*
X000940Y007385D01*
X001314Y007385D02*
X001686Y007385D01*
X003720Y012054D02*
X003720Y013574D01*
X006840Y013574D02*
X006840Y012934D01*
X006819Y012932D01*
X006799Y012927D01*
X006780Y012918D01*
X006763Y012906D01*
X006748Y012891D01*
X006736Y012874D01*
X006727Y012855D01*
X006722Y012835D01*
X006720Y012814D01*
X006722Y012793D01*
X006727Y012773D01*
X006736Y012754D01*
X006748Y012737D01*
X006763Y012722D01*
X006780Y012710D01*
X006799Y012701D01*
X006819Y012696D01*
X006840Y012694D01*
X006840Y012054D01*
X006840Y007275D02*
X006840Y006635D01*
X006819Y006633D01*
X006799Y006628D01*
X006780Y006619D01*
X006763Y006607D01*
X006748Y006592D01*
X006736Y006575D01*
X006727Y006556D01*
X006722Y006536D01*
X006720Y006515D01*
X006722Y006494D01*
X006727Y006474D01*
X006736Y006455D01*
X006748Y006438D01*
X006763Y006423D01*
X006780Y006411D01*
X006799Y006402D01*
X006819Y006397D01*
X006840Y006395D01*
X006840Y005755D01*
D11*
X000923Y004030D02*
X000923Y003790D01*
X001283Y003790D01*
X001507Y003846D02*
X001507Y003966D01*
X001567Y004026D01*
X001507Y004154D02*
X001507Y004394D01*
X001507Y004274D02*
X001868Y004274D01*
X001748Y004154D01*
X001808Y004026D02*
X001868Y003966D01*
X001868Y003846D01*
X001808Y003786D01*
X001567Y003786D01*
X001507Y003846D01*
X001163Y004158D02*
X001283Y004278D01*
X000923Y004278D01*
X000923Y004158D02*
X000923Y004399D01*
X001423Y007991D02*
X001363Y008051D01*
X001363Y008171D01*
X001423Y008231D01*
X001723Y008231D01*
X001723Y008360D02*
X001543Y008360D01*
X001603Y008480D01*
X001603Y008540D01*
X001543Y008600D01*
X001423Y008600D01*
X001363Y008540D01*
X001363Y008420D01*
X001423Y008360D01*
X001423Y007991D02*
X001723Y007991D01*
X001723Y008360D02*
X001723Y008600D01*
X002583Y008600D02*
X002583Y008360D01*
X002823Y008600D01*
X002883Y008600D01*
X002943Y008540D01*
X002943Y008420D01*
X002883Y008360D01*
X002883Y008231D02*
X002943Y008171D01*
X002943Y008051D01*
X002883Y007991D01*
X002643Y007991D01*
X002583Y008051D01*
X002583Y008171D01*
X002643Y008231D01*
X005096Y004920D02*
X005396Y004920D01*
X005456Y004860D01*
X005456Y004740D01*
X005396Y004680D01*
X005096Y004680D01*
X005276Y004551D02*
X005156Y004431D01*
X005096Y004311D01*
X005276Y004371D02*
X005276Y004551D01*
X005396Y004551D01*
X005456Y004491D01*
X005456Y004371D01*
X005396Y004311D01*
X005336Y004311D01*
X005276Y004371D01*
X006750Y004362D02*
X006750Y004482D01*
X006810Y004542D01*
X007110Y004542D01*
X007050Y004670D02*
X007110Y004730D01*
X007110Y004850D01*
X007050Y004910D01*
X006990Y004910D01*
X006750Y004670D01*
X006750Y004910D01*
X006750Y004362D02*
X006810Y004302D01*
X007110Y004302D01*
X008758Y004285D02*
X008758Y004165D01*
X008818Y004105D01*
X009058Y004105D01*
X009118Y004165D01*
X009118Y004285D01*
X009058Y004345D01*
X008938Y004473D02*
X008938Y004653D01*
X008878Y004714D01*
X008818Y004714D01*
X008758Y004653D01*
X008758Y004533D01*
X008818Y004473D01*
X008938Y004473D01*
X009058Y004593D01*
X009118Y004714D01*
X008818Y004345D02*
X008758Y004285D01*
X009978Y004285D02*
X009978Y004165D01*
X010038Y004105D01*
X010339Y004105D01*
X010339Y004345D02*
X010038Y004345D01*
X009978Y004285D01*
X009978Y004473D02*
X009978Y004714D01*
X009978Y004593D02*
X010339Y004593D01*
X010218Y004473D01*
X010108Y008109D02*
X009867Y008109D01*
X009807Y008169D01*
X009807Y008290D01*
X009867Y008350D01*
X009867Y008478D02*
X009807Y008538D01*
X009807Y008658D01*
X009867Y008718D01*
X009928Y008718D01*
X009988Y008658D01*
X009988Y008598D01*
X009988Y008658D02*
X010048Y008718D01*
X010108Y008718D01*
X010168Y008658D01*
X010168Y008538D01*
X010108Y008478D01*
X010108Y008350D02*
X010168Y008290D01*
X010168Y008169D01*
X010108Y008109D01*
X010614Y008109D02*
X010975Y008109D01*
X010975Y008290D01*
X010915Y008350D01*
X010795Y008350D01*
X010735Y008290D01*
X010735Y008109D01*
X010735Y008229D02*
X010614Y008350D01*
X010675Y008478D02*
X010614Y008538D01*
X010614Y008658D01*
X010675Y008718D01*
X010795Y008718D01*
X010855Y008658D01*
X010855Y008598D01*
X010795Y008478D01*
X010975Y008478D01*
X010975Y008718D01*
X010535Y010601D02*
X010175Y010601D01*
X010295Y010601D02*
X010295Y010781D01*
X010355Y010841D01*
X010475Y010841D01*
X010535Y010781D01*
X010535Y010601D01*
X010475Y010969D02*
X010535Y011029D01*
X010535Y011150D01*
X010475Y011210D01*
X010415Y011210D01*
X010175Y010969D01*
X010175Y011210D01*
X010175Y010841D02*
X010295Y010721D01*
X009669Y010601D02*
X009369Y010601D01*
X009309Y010661D01*
X009309Y010781D01*
X009369Y010841D01*
X009669Y010841D01*
X009609Y010969D02*
X009669Y011029D01*
X009669Y011150D01*
X009609Y011210D01*
X009549Y011210D01*
X009489Y011150D01*
X009429Y011210D01*
X009369Y011210D01*
X009309Y011150D01*
X009309Y011029D01*
X009369Y010969D01*
X009489Y011089D02*
X009489Y011150D01*
X008639Y011234D02*
X008579Y011114D01*
X008459Y010994D01*
X008459Y011174D01*
X008399Y011234D01*
X008339Y011234D01*
X008279Y011174D01*
X008279Y011054D01*
X008339Y010994D01*
X008459Y010994D01*
X008459Y010866D02*
X008399Y010806D01*
X008399Y010625D01*
X008279Y010625D02*
X008639Y010625D01*
X008639Y010806D01*
X008579Y010866D01*
X008459Y010866D01*
X008399Y010746D02*
X008279Y010866D01*
X007734Y010816D02*
X007734Y010696D01*
X007674Y010636D01*
X007434Y010636D01*
X007374Y010696D01*
X007374Y010816D01*
X007434Y010876D01*
X007434Y011004D02*
X007374Y011004D01*
X007434Y011004D02*
X007674Y011245D01*
X007734Y011245D01*
X007734Y011004D01*
X007674Y010876D02*
X007734Y010816D01*
X007566Y008718D02*
X007566Y008478D01*
X007746Y008658D01*
X007386Y008658D01*
X007446Y008350D02*
X007386Y008290D01*
X007386Y008169D01*
X007446Y008109D01*
X007686Y008109D01*
X007746Y008169D01*
X007746Y008290D01*
X007686Y008350D01*
X008193Y008350D02*
X008193Y008109D01*
X008554Y008109D01*
X008493Y008478D02*
X008554Y008538D01*
X008554Y008658D01*
X008493Y008718D01*
X008433Y008718D01*
X008193Y008478D01*
X008193Y008718D01*
X009000Y008658D02*
X009361Y008658D01*
X009180Y008478D01*
X009180Y008718D01*
X009180Y008350D02*
X009120Y008290D01*
X009120Y008109D01*
X009000Y008109D02*
X009361Y008109D01*
X009361Y008290D01*
X009301Y008350D01*
X009180Y008350D01*
X009120Y008229D02*
X009000Y008350D01*
X009139Y014448D02*
X009079Y014508D01*
X009079Y014628D01*
X009139Y014688D01*
X009139Y014816D02*
X009199Y014816D01*
X009259Y014876D01*
X009259Y014996D01*
X009199Y015056D01*
X009139Y015056D01*
X009079Y014996D01*
X009079Y014876D01*
X009139Y014816D01*
X009259Y014876D02*
X009319Y014816D01*
X009379Y014816D01*
X009439Y014876D01*
X009439Y014996D01*
X009379Y015056D01*
X009319Y015056D01*
X009259Y014996D01*
X009379Y014688D02*
X009439Y014628D01*
X009439Y014508D01*
X009379Y014448D01*
X009139Y014448D01*
X008613Y014448D02*
X008252Y014448D01*
X008252Y014688D01*
X008312Y014816D02*
X008252Y014876D01*
X008252Y014996D01*
X008312Y015056D01*
X008372Y015056D01*
X008432Y014996D01*
X008432Y014936D01*
X008432Y014996D02*
X008492Y015056D01*
X008553Y015056D01*
X008613Y014996D01*
X008613Y014876D01*
X008553Y014816D01*
X007786Y014816D02*
X007606Y014816D01*
X007666Y014936D01*
X007666Y014996D01*
X007606Y015056D01*
X007486Y015056D01*
X007426Y014996D01*
X007426Y014876D01*
X007486Y014816D01*
X007486Y014688D02*
X007426Y014628D01*
X007426Y014508D01*
X007486Y014448D01*
X007726Y014448D01*
X007786Y014508D01*
X007786Y014628D01*
X007726Y014688D01*
X007786Y014816D02*
X007786Y015056D01*
X005956Y015035D02*
X005956Y014795D01*
X005956Y014667D02*
X005656Y014667D01*
X005596Y014607D01*
X005596Y014487D01*
X005656Y014427D01*
X005956Y014427D01*
X005656Y014795D02*
X005596Y014795D01*
X005656Y014795D02*
X005896Y015035D01*
X005956Y015035D01*
X002943Y014248D02*
X002763Y014068D01*
X002763Y014308D01*
X002583Y014248D02*
X002943Y014248D01*
X002943Y013940D02*
X002643Y013940D01*
X002583Y013880D01*
X002583Y013760D01*
X002643Y013700D01*
X002943Y013700D01*
X001487Y013700D02*
X001487Y013880D01*
X001427Y013940D01*
X001306Y013940D01*
X001246Y013880D01*
X001246Y013700D01*
X001126Y013700D02*
X001487Y013700D01*
X001246Y013820D02*
X001126Y013940D01*
X001126Y014068D02*
X001126Y014308D01*
X001126Y014188D02*
X001487Y014188D01*
X001367Y014068D01*
X010181Y014448D02*
X010542Y014448D01*
X010542Y014628D01*
X010482Y014688D01*
X010362Y014688D01*
X010302Y014628D01*
X010302Y014448D01*
X010302Y014568D02*
X010181Y014688D01*
X010241Y014816D02*
X010181Y014876D01*
X010181Y014996D01*
X010241Y015056D01*
X010302Y015056D01*
X010362Y014996D01*
X010362Y014936D01*
X010362Y014996D02*
X010422Y015056D01*
X010482Y015056D01*
X010542Y014996D01*
X010542Y014876D01*
X010482Y014816D01*
D12*
X010152Y011111D03*
X010703Y004694D03*
X008419Y004694D03*
X003222Y011977D03*
D13*
X003213Y012518D02*
X003154Y012518D01*
X003213Y012518D02*
X003213Y012656D01*
X001992Y012656D01*
X001992Y012518D01*
X002051Y012518D01*
X001992Y012656D02*
X001992Y013188D01*
X002051Y013188D01*
X003154Y013188D02*
X003213Y013188D01*
X003213Y012656D01*
X007189Y005904D02*
X007189Y005373D01*
X008409Y005373D01*
X008409Y005235D01*
X008350Y005235D01*
X008409Y005373D02*
X008409Y005904D01*
X008350Y005904D01*
X009472Y005904D02*
X009472Y005373D01*
X010693Y005373D01*
X010693Y005235D01*
X010634Y005235D01*
X010693Y005373D02*
X010693Y005904D01*
X010634Y005904D01*
X009531Y005904D02*
X009472Y005904D01*
X009472Y005373D02*
X009472Y005235D01*
X009531Y005235D01*
X007248Y005235D02*
X007189Y005235D01*
X007189Y005373D01*
X007189Y005904D02*
X007248Y005904D01*
X008921Y011652D02*
X008980Y011652D01*
X008921Y011652D02*
X008921Y011790D01*
X010142Y011790D01*
X010142Y011652D01*
X010083Y011652D01*
X010142Y011790D02*
X010142Y012322D01*
X010083Y012322D01*
X008980Y012322D02*
X008921Y012322D01*
X008921Y011790D01*
M02*
