G75*
%MOIN*%
%OFA0B0*%
%FSLAX24Y24*%
%IPPOS*%
%LPD*%
%AMOC8*
5,1,8,0,0,1.08239X$1,22.5*
%
%ADD10C,0.0039*%
%ADD11C,0.0060*%
D10*
X000390Y001574D02*
X000390Y004999D01*
X011350Y004999D01*
X011350Y001574D01*
X006736Y001574D01*
X006736Y001820D01*
X006736Y002026D01*
X005004Y002026D01*
X005004Y001820D01*
X005004Y001574D01*
X000390Y001574D01*
X000616Y001820D02*
X000843Y002026D01*
X000843Y004546D01*
X000616Y004753D01*
X011124Y004753D01*
X010898Y004546D01*
X010898Y002026D01*
X011124Y001820D01*
X011124Y004753D01*
X010898Y004546D02*
X000843Y004546D01*
X000616Y004753D02*
X000616Y001820D01*
X005004Y001820D01*
X005004Y002026D02*
X000843Y002026D01*
X000390Y007952D02*
X000390Y011377D01*
X011350Y011377D01*
X011350Y007952D01*
X006736Y007952D01*
X006736Y008198D01*
X006736Y008404D01*
X005004Y008404D01*
X005004Y008198D01*
X005004Y007952D01*
X000390Y007952D01*
X000616Y008198D02*
X000843Y008404D01*
X000843Y010924D01*
X000616Y011131D01*
X011124Y011131D01*
X010898Y010924D01*
X010898Y008404D01*
X011124Y008198D01*
X011124Y011131D01*
X010898Y010924D02*
X000843Y010924D01*
X000616Y011131D02*
X000616Y008198D01*
X005004Y008198D01*
X005004Y008404D02*
X000843Y008404D01*
X000390Y014251D02*
X000390Y017676D01*
X011350Y017676D01*
X011350Y014251D01*
X006736Y014251D01*
X006736Y014497D01*
X006736Y014704D01*
X005004Y014704D01*
X005004Y014497D01*
X005004Y014251D01*
X000390Y014251D01*
X000616Y014497D02*
X000843Y014704D01*
X000843Y017223D01*
X000616Y017430D01*
X011124Y017430D01*
X010898Y017223D01*
X010898Y014704D01*
X011124Y014497D01*
X011124Y017430D01*
X010898Y017223D02*
X000843Y017223D01*
X000616Y017430D02*
X000616Y014497D01*
X005004Y014497D01*
X005004Y014704D02*
X000843Y014704D01*
X005004Y014251D02*
X006736Y014251D01*
X006736Y014497D02*
X011124Y014497D01*
X010898Y014704D02*
X006736Y014704D01*
X006736Y008404D02*
X010898Y008404D01*
X011124Y008198D02*
X006736Y008198D01*
X006736Y007952D02*
X005004Y007952D01*
X006736Y002026D02*
X010898Y002026D01*
X011124Y001820D02*
X006736Y001820D01*
X006736Y001574D02*
X005004Y001574D01*
D11*
X001631Y005285D02*
X001298Y005285D01*
X001464Y005285D02*
X001464Y005785D01*
X001298Y005618D01*
X001116Y005785D02*
X000949Y005785D01*
X001032Y005785D02*
X001032Y005368D01*
X000949Y005285D01*
X000865Y005285D01*
X000782Y005368D01*
X010231Y007179D02*
X010314Y007096D01*
X010398Y007096D01*
X010481Y007179D01*
X010481Y007596D01*
X010398Y007596D02*
X010564Y007596D01*
X010746Y007513D02*
X010830Y007596D01*
X010997Y007596D01*
X011080Y007513D01*
X011080Y007429D01*
X010746Y007096D01*
X011080Y007096D01*
X010997Y013395D02*
X010830Y013395D01*
X010746Y013478D01*
X010913Y013645D02*
X010997Y013645D01*
X011080Y013562D01*
X011080Y013478D01*
X010997Y013395D01*
X010997Y013645D02*
X011080Y013729D01*
X011080Y013812D01*
X010997Y013895D01*
X010830Y013895D01*
X010746Y013812D01*
X010564Y013895D02*
X010398Y013895D01*
X010481Y013895D02*
X010481Y013478D01*
X010398Y013395D01*
X010314Y013395D01*
X010231Y013478D01*
M02*
