G75*
%MOIN*%
%OFA0B0*%
%FSLAX24Y24*%
%IPPOS*%
%LPD*%
%AMOC8*
5,1,8,0,0,1.08239X$1,22.5*
%
%ADD10C,0.0000*%
D10*
X000555Y001396D02*
X011185Y001396D01*
X011224Y001398D01*
X011262Y001404D01*
X011299Y001413D01*
X011336Y001426D01*
X011371Y001443D01*
X011404Y001462D01*
X011435Y001485D01*
X011464Y001511D01*
X011490Y001540D01*
X011513Y001571D01*
X011532Y001604D01*
X011549Y001639D01*
X011562Y001676D01*
X011571Y001713D01*
X011577Y001751D01*
X011579Y001790D01*
X011579Y017538D01*
X011577Y017577D01*
X011571Y017615D01*
X011562Y017652D01*
X011549Y017689D01*
X011532Y017724D01*
X011513Y017757D01*
X011490Y017788D01*
X011464Y017817D01*
X011435Y017843D01*
X011404Y017866D01*
X011371Y017885D01*
X011336Y017902D01*
X011299Y017915D01*
X011262Y017924D01*
X011224Y017930D01*
X011185Y017932D01*
X000555Y017932D01*
X000516Y017930D01*
X000478Y017924D01*
X000441Y017915D01*
X000404Y017902D01*
X000369Y017885D01*
X000336Y017866D01*
X000305Y017843D01*
X000276Y017817D01*
X000250Y017788D01*
X000227Y017757D01*
X000208Y017724D01*
X000191Y017689D01*
X000178Y017652D01*
X000169Y017615D01*
X000163Y017577D01*
X000161Y017538D01*
X000161Y001790D01*
X000163Y001751D01*
X000169Y001713D01*
X000178Y001676D01*
X000191Y001639D01*
X000208Y001604D01*
X000227Y001571D01*
X000250Y001540D01*
X000276Y001511D01*
X000305Y001485D01*
X000336Y001462D01*
X000369Y001443D01*
X000404Y001426D01*
X000441Y001413D01*
X000478Y001404D01*
X000516Y001398D01*
X000555Y001396D01*
M02*
